<svg width="66" height="66" viewBox="0 0 66 66" fill="none" xmlns="http://www.w3.org/2000/svg">
<g clip-path="url(#clip0_1_61)">
<path d="M31.625 66.0674C31.4229 66.0674 31.2207 66.0234 31.0337 65.934L2.15875 52.184C1.68025 51.9557 1.375 51.4731 1.375 50.9424V8.31737C1.375 7.84574 1.617 7.40712 2.01575 7.15412C2.41312 6.90249 2.915 6.87362 3.34125 7.07574L31.625 20.5439L59.9087 7.07437C60.335 6.87362 60.8341 6.90112 61.2329 7.15412C61.633 7.40712 61.875 7.84574 61.875 8.31737V50.9424C61.875 51.4731 61.5698 51.9557 61.0913 52.184L32.2163 65.934C32.0293 66.0234 31.8271 66.0674 31.625 66.0674ZM4.125 50.0734L31.625 63.1689L59.125 50.0734V10.4954L32.2163 23.309C31.8436 23.4864 31.4077 23.4864 31.0351 23.309L4.125 10.4954V50.0734Z" fill="black"/>
<path d="M31.625 16.7805L7.65461 5.36662C6.96848 5.03937 6.67836 4.2185 7.00423 3.53375C7.33148 2.84762 8.15098 2.56025 8.83711 2.882L31.625 13.7349L54.4129 2.882C55.1004 2.56025 55.9185 2.84762 56.2457 3.53375C56.5716 4.2185 56.2815 5.03937 55.5954 5.36662L31.625 16.7805Z" fill="black"/>
<path d="M33 22.0674H30.25V64.6924H33V22.0674Z" fill="black"/>
</g>
<defs>
<clipPath id="clip0_1_61">
<rect width="66" height="66" fill="white"/>
</clipPath>
</defs>
</svg>
